# AST/ASF file generated using VICON BodyLanguage
# -----------------------------------------------
:version 1.10
:name VICON
:units
  mass 1.0
  length 0.45
  angle deg
:documentation
   .ast/.asf automatically generated from VICON data using
   VICON BodyBuilder and BodyLanguage model FoxedUp or BRILLIANT.MOD
:root
   order TX TY TZ RX RY RZ
   axis XYZ
   position 0 0 0  
   orientation 0 0 0 
:bonedata
  begin
     id 1 
     name lhipjoint
     direction 0.611804 -0.747784 0.257906 
     length 2.29243 
     axis 0 0 0  XYZ
  end
  begin
     id 2 
     name lfemur
     direction 0.34202 -0.939693 0  
     length 7.31159  
     axis 0 0 20  XYZ
    dof rx ry rz
    limits (-160.0 20.0)
           (-70.0 70.0)
           (-60.0 70.0)
  end
  begin
     id 3 
     name ltibia
     direction 0.34202 -0.939693 0   
     length 7.33391   
     axis 0 0 20   XYZ
    dof rx
    limits (-10.0 170.0)
  end
  begin
     id 4 
     name lfoot
     direction 0.122263 -0.335914 0.933924   
     length 1.76083   
     axis -90 7.62852e-016 20   XYZ
    dof rx rz
    limits (-45.0 90.0)
           (-70.0 20.0)
  end
  begin
     id 5 
     name ltoes
     direction 1.53533e-011 -4.2177e-011 1   
     length 0.879206   
     axis -90 7.62852e-016 20   XYZ
    dof rx
    limits (-90.0 20.0)
  end
  begin
     id 6 
     name rhipjoint
     direction -0.646469 -0.721248 0.248754   
     length 2.37677  
     axis 0 0 0  XYZ 
  end
  begin
     id 7 
     name rfemur
     direction -0.34202 -0.939693 0   
     length 7.18623   
     axis 0 0 -20   XYZ
    dof rx ry rz
    limits (-160.0 20.0)
           (-70.0 70.0)
           (-70.0 60.0)
  end
  begin
     id 8 
     name rtibia
     direction -0.34202 -0.939693 0   
     length 7.36567   
     axis 0 0 -20   XYZ
    dof rx
    limits (-10.0 170.0)
 end
 begin
     id 9 
     name rfoot
     direction -0.126681 -0.348054 0.928876   
     length 1.71902  
     axis -90 -7.62852e-016 -20   XYZ
    dof rx rz
    limits (-45.0 90.0)
           (-20.0 70.0)
  end
  begin
     id 10 
     name rtoes
     direction -1.53551e-011 -4.21898e-011 1   
     length 0.857792   
     axis -90 -7.62852e-016 -20   XYZ
    dof rx
    limits (-90.0 20.0)
  end
  begin
     id 11 
     name lowerback
     direction 0.0106509 0.999778 0.0181844   
     length 2.07668   
     axis 0 0 0   XYZ
    dof rx ry rz
    limits (-20.0 45.0)
           (-30.0 30.0)
           (-30.0 30.0)
  end
  begin
     id 12 
     name upperback
     direction -0.00456018 0.999989 -0.000590935   
     length 2.08011   
     axis 0 0 0   XYZ
    dof rx ry rz
    limits (-20.0 45.0)
           (-30.0 30.0)
           (-30.0 30.0)
  end
  begin
     id 13 
     name thorax
     direction -0.00910382 0.999916 -0.00923765   
     length 2.07397   
     axis 0 0 0   XYZ
    dof rx ry rz
    limits (-20.0 45.0)
           (-30.0 30.0)
           (-30.0 30.0)
  end
  begin
     id 14 
     name lowerneck
     direction 0.00171967 0.99778 0.0665733   
     length 1.67556   
     axis 0 0 0   XYZ
    dof rx ry rz
    limits (-20.0 45.0)
           (-30.0 30.0)
           (-30.0 30.0)
  end
  begin
     id 15 
     name upperneck
     direction -0.0143166 0.991302 -0.130828   
     length 1.68462   
     axis 0 0 0   XYZ
    dof rx ry rz
    limits (-20.0 45.0)
           (-30.0 30.0)
           (-30.0 30.0)
  end
  begin
     id 16
     name head
     direction -0.00606378 0.998665 -0.0512995  
     length 1.69269  
     axis 0 0 0   XYZ
    dof rx ry rz
    limits (-20.0 45.0)
           (-30.0 30.0)
           (-30.0 30.0)
  end
  begin
     id 17 
     name lclavicle
     direction 0.9638 0.179341 0.197297  
     length 4.12888  
     axis 0 0 0   XYZ
    dof ry rz
    limits (-20.0 10.0)
           (0.0 20.0)
  end
  begin
     id 18 
     name lhumerus
     direction 1 -4.48972e-011 -2.47351e-027   
     length 5.01834   
     axis -180 -30 -90   XYZ
    dof rx ry rz
    limits (-60.0 90.0)
           (-90.0 90.0)
           (-90.0 90.0)
  end
  begin
     id 19
     name lradius
     direction 1 -4.48965e-011 1.51591e-026   
     length 3.4869   
     axis -180 -30 -90   XYZ
    dof rx
    limits (-10.0 170.0)
  end
  begin
     id 20
     name lwrist
     direction 1 -4.48957e-011 2.70032e-026   
     length 1.74345   
     axis -1.81515e-014 90 90   XYZ
    dof ry
    limits (-180.0 0.0)
 end
  begin
     id 21 
     name lhand
     direction 1 -4.48951e-011 5.40064e-026   
     length 0.76799   
     axis -3.44607e-014 90 90   XYZ
    dof rx rz
    limits (-90.0 90.0)
           (-45.0 45.0)
  end
  begin
     id 22 
     name lfingers
     direction 1 -4.48971e-011 1.08013e-025   
     length 0.619174   
     axis -6.89214e-014 90 90   XYZ
    dof rx
    limits (0.0 90.0)
  end
  begin
     id 23
     name lthumb
     direction 0.707107 -6.34931e-011 0.707107   
     length 0.889013   
     axis -90 45 2.85299e-015   XYZ
    dof rx rz
    limits (-45.0 45.0)
           (-45.0 45.0)
  end
  begin
     id 24 
     name rclavicle
     direction -0.961409 0.252588 0.109054   
     length 4.04305  
     axis 0 0 0   XYZ 
    dof ry rz
    limits (-10.0 20.0)
           (-20.0 0.0)
  end
  begin
     id 25 
     name rhumerus
     direction -1 -4.4897e-011 1.33872e-017  
     length 4.70164   
     axis -180 30 90   XYZ
    dof rx ry rz
    limits (-90.0 60.0)
           (-90.0 90.0)
           (-90.0 90.0)
  end
  begin
     id 26 
     name rradius
     direction -1 -4.48954e-011 1.83844e-026   
     length 3.49911   
     axis -180 30 90   XYZ
    dof rx
    limits (-10.0 170.0)
  end
  begin
     id 27 
     name rwrist
     direction -1 -4.49008e-011 2.70032e-026   
     length 1.74955   
     axis -1.81515e-014 -90 -90   XYZ
    dof ry
    limits (-180.0 0.0)
  end
  begin
     id 28
     name rhand
     direction -1 -4.48916e-011 5.40064e-026   
     length 0.739335   
     axis -3.44607e-014 -90 -90   XYZ
    dof rx rz
    limits (-90.0 90.0)
           (-45.0 45.0)
  end
  begin
     id 29
     name rfingers
     direction -1 -4.48987e-011 1.08013e-025   
     length 0.596071   
     axis -6.89214e-014 -90 -90   XYZ
    dof rx
    limits (0.0 90.0)
  end
  begin
     id 30
     name rthumb
     direction -0.707107 -6.34935e-011 0.707107   
     length 0.855843   
     axis -90 -45 -2.85299e-015   XYZ
    dof rx rz
    limits (-45.0 45.0)
           (-45.0 45.0)
  end
:hierarchy
  begin
    root lhipjoint rhipjoint lowerback
    lhipjoint lfemur
    lfemur ltibia
    ltibia lfoot
    lfoot ltoes
    rhipjoint rfemur
    rfemur rtibia
    rtibia rfoot
    rfoot rtoes
    lowerback upperback
    upperback thorax
    thorax lowerneck lclavicle rclavicle
    lowerneck upperneck
    upperneck head
    lclavicle lhumerus
    lhumerus lradius
    lradius lwrist
    lwrist lhand lthumb
    lhand lfingers
    rclavicle rhumerus
    rhumerus rradius
    rradius rwrist
    rwrist rhand rthumb
    rhand rfingers
  end

#!OML:ASF I:\salsa\salsa 7_09\Patient 1\Session 1\dancermale.ASF
:FULLY-SPECIFIED
:DEGREES
38
root -16.8875 17.5818 -1.06999 -107.716 84.9965 -120.239
lowerback -15.0228 2.67015 2.91299
upperback -1.89257 3.13562 0.408413
thorax 6.53529 1.6434 -0.56643
lowerneck -7.77815 -4.30702 -2.18058
upperneck 12.8709 -5.80775 2.62227
head 5.29386 -2.72734 0.773971
rclavicle 6.62698e-014 9.14409e-015
rhumerus -48.9003 33.6426 -120.006
rradius 105.187
rwrist -16.3908
rhand -24.811 0.715559
rfingers 7.12502
rthumb 1.69406 -29.2575
lclavicle 6.62698e-014 9.14409e-015
lhumerus -41.3902 -40.2755 117.528
lradius 106.645
lwrist 18.4436
lhand -27.2195 39.8277
lfingers 7.12502
lthumb -0.632078 69.8065
rfemur -15.9189 6.31513 19.9881
rtibia 12.9656
rfoot -14.4089 -14.7337
rtoes 1.76538
lfemur -13.5992 5.45409 -16.5593
ltibia 9.65505
lfoot -15.7237 -1.93528
ltoes -1.69248
39
root -16.887 17.5798 -1.04824 -110.038 85.0548 -122.356
lowerback -14.951 2.60405 2.83317
upperback -1.78166 3.06282 0.312789
thorax 6.61297 1.60603 -0.638053
lowerneck -7.74165 -4.21784 -2.16029
upperneck 12.7755 -5.71208 2.79532
head 5.26019 -2.66951 0.832856
rclavicle -2.98301e-014 1.59028e-015
rhumerus -48.8553 33.5793 -120.028
rradius 105.2
rwrist -16.0044
rhand -24.5586 0.566308
rfingers 7.12502
rthumb 1.93791 -29.4046
lclavicle -2.98301e-014 1.59028e-015
lhumerus -41.2982 -40.333 117.375
lradius 106.6
lwrist 18.2831
lhand -27.0744 39.7174
lfingers 7.12502
lthumb -0.491951 69.6965
rfemur -15.5818 6.38608 19.9571
rtibia 12.8169
rfoot -14.3984 -14.8551
rtoes 1.63426
lfemur -13.4277 5.21785 -16.6477
ltibia 9.74848
lfoot -15.7665 -1.77947
ltoes -2.06795
40
root -16.8863 17.5771 -1.02683 -112.44 85.1053 -124.584
lowerback -14.8463 2.52881 2.74159
upperback -1.73192 2.98268 0.241619
thorax 6.6047 1.56455 -0.681817
lowerneck -7.73158 -4.1412 -2.18472
upperneck 12.8526 -5.62877 2.9701
head 5.28605 -2.6164 0.89651
rclavicle -2.36305e-014 -7.95139e-015
rhumerus -48.8989 33.4825 -120.049
rradius 105.163
rwrist -15.6258
rhand -24.6831 -0.334393
rfingers 7.12502
rthumb 1.8176 -30.3064
lclavicle -2.36305e-014 -7.95139e-015
lhumerus -41.3008 -40.3274 117.291
lradius 106.49
lwrist 18.0712
lhand -27.1272 39.56
lfingers 7.12502
lthumb -0.542913 69.5391
rfemur -15.301 6.38024 19.908
rtibia 12.6989
rfoot -14.2828 -14.8873
rtoes 1.2923
lfemur -13.296 4.92526 -16.7415
ltibia 9.83672
lfoot -15.758 -1.56136
ltoes -2.88913
41
root -16.8805 17.5759 -1.00487 -115.64 85.0646 -127.572
lowerback -14.7721 2.41168 2.63291
upperback -1.6532 2.84355 0.234525
thorax 6.6379 1.49334 -0.658019
lowerneck -7.87032 -4.12364 -1.93032
upperneck 13.1265 -5.57836 2.51828
head 5.37307 -2.60488 0.713806
rclavicle 1.02995e-014 -5.36719e-015
rhumerus -48.8655 33.4537 -119.999
rradius 105.045
rwrist -15.7288
rhand -24.9374 -1.63642
rfingers 7.12502
rthumb 1.57199 -31.6104
lclavicle 1.02995e-014 -5.36719e-015
lhumerus -41.2745 -40.2826 117.256
lradius 106.308
lwrist 17.8432
lhand -27.3387 39.295
lfingers 7.12502
lthumb -0.747184 69.2734
rfemur -14.9026 6.31514 19.9169
rtibia 12.5075
rfoot -14.3418 -15.0124
rtoes 1.38199
lfemur -13.0905 4.65127 -16.7834
ltibia 9.89376
lfoot -15.7914 -1.48278
ltoes -3.58381
42
root -16.8693 17.5741 -0.980722 -118.623 85.0585 -130.233
lowerback -14.6809 2.31785 2.47205
upperback -1.49187 2.74068 0.21638
thorax 6.7497 1.43813 -0.607521
lowerneck -8.07262 -4.11551 -1.71411
upperneck 13.4027 -5.55312 2.20001
head 5.47756 -2.59827 0.575137
rclavicle -3.02277e-014 -3.57812e-015
rhumerus -48.7683 33.3488 -119.925
rradius 104.974
rwrist -16.0834
rhand -24.634 -2.26766
rfingers 7.12502
rthumb 1.86508 -32.2393
lclavicle -3.02277e-014 -3.57812e-015
lhumerus -41.1823 -40.283 117.169
lradius 106.131
lwrist 17.606
lhand -27.3008 38.9114
lfingers 7.12502
lthumb -0.710579 68.8899
rfemur -14.3405 6.27908 19.9164
rtibia 12.2622
rfoot -14.4905 -15.1567
rtoes 1.56653
lfemur -12.7187 4.40273 -16.834
ltibia 9.90626
lfoot -15.8238 -1.44666
ltoes -3.79346
43
root -16.8609 17.5705 -0.957602 -120.174 85.0991 -131.493
lowerback -14.5819 2.27549 2.35983
upperback -1.3315 2.69822 0.203749
thorax 6.86045 1.41351 -0.566403
lowerneck -8.30737 -4.09414 -1.56743
upperneck 13.6677 -5.51117 1.96001
head 5.58835 -2.58195 0.472349
rclavicle 1.14177e-014 -8.74653e-015
rhumerus -48.6976 33.2244 -119.85
rradius 104.889
rwrist -16.1553
rhand -24.0661 -2.81658
rfingers 7.12502
rthumb 2.41349 -32.7827
lclavicle 1.14177e-014 -8.74653e-015
lhumerus -41.1126 -40.3077 117.09
lradius 106.055
lwrist 17.451
lhand -27.1907 38.7787
lfingers 7.12502
lthumb -0.60429 68.7576
rfemur -13.8897 6.19404 19.9387
rtibia 12.0951
rfoot -14.4221 -15.0956
rtoes 1.55518
lfemur -12.3824 4.28543 -16.8636
ltibia 9.9141
lfoot -15.7617 -1.49005
ltoes -3.5123
44
root -16.8597 17.5677 -0.938189 -120.922 85.178 -132.114
lowerback -14.5361 2.24873 2.32851
upperback -1.24229 2.66684 0.17162
thorax 6.92969 1.39726 -0.588879
lowerneck -8.50088 -4.0205 -1.58614
upperneck 13.8665 -5.40129 1.90486
head 5.68052 -2.52935 0.460388
rclavicle -9.44227e-015 -1.76918e-014
rhumerus -48.73 33.1717 -119.847
rradius 104.768
rwrist -15.8818
rhand -23.7281 -3.84667
rfingers 7.12502
rthumb 2.73993 -33.8088
lclavicle -9.44227e-015 -1.76918e-014
lhumerus -41.0387 -40.2652 117.001
lradius 105.999
lwrist 17.4351
lhand -27.2139 38.8703
lfingers 7.12502
lthumb -0.626653 68.8492
rfemur -13.7371 6.01732 19.9259
rtibia 12.0554
rfoot -14.2643 -14.9233
rtoes 1.15192
lfemur -12.2658 4.25042 -16.9305
ltibia 9.95828
lfoot -15.6529 -1.52933
ltoes -3.24118
45
root -16.8564 17.5662 -0.917927 -121.278 85.2277 -132.43
lowerback -14.5546 2.27912 2.32758
upperback -1.24086 2.70867 0.142835
thorax 6.94423 1.41804 -0.609484
lowerneck -8.44649 -4.00434 -1.64995
upperneck 13.9368 -5.37211 1.92086
head 5.69492 -2.51608 0.478454
rclavicle 2.93704e-014 6.95746e-015
rhumerus -48.9672 32.9702 -119.868
rradius 104.767
rwrist -15.3585
rhand -23.5693 -4.48572
rfingers 7.12502
rthumb 2.89334 -34.4458
lclavicle 2.93704e-014 6.95746e-015
lhumerus -41.2024 -40.2775 117.113
lradius 105.993
lwrist 17.5456
lhand -27.2514 38.737
lfingers 7.12502
lthumb -0.662914 68.7157
rfemur -13.6748 5.92313 19.9486
rtibia 12.02
rfoot -14.2139 -14.8504
rtoes 0.667616
lfemur -12.2683 4.077 -16.9475
ltibia 10.0696
lfoot -15.5873 -1.41536
ltoes -2.82191
46
root -16.8475 17.5661 -0.896337 -122.293 85.2042 -133.349
lowerback -14.6127 2.31231 2.2594
upperback -1.22923 2.75887 0.189678
thorax 6.98496 1.44004 -0.508491
lowerneck -8.17915 -4.03654 -1.71366
upperneck 13.8849 -5.3919 1.82701
head 5.63246 -2.5373 0.464284
rclavicle 1.68346e-014 -1.78906e-015
rhumerus -49.3141 32.7016 -119.805
rradius 104.941
rwrist -15.0816
rhand -23.3379 -4.56348
rfingers 7.12502
rthumb 3.11679 -34.5204
lclavicle 1.68346e-014 -1.78906e-015
lhumerus -41.5533 -40.296 117.474
lradius 106.069
lwrist 17.6724
lhand -27.3478 38.4426
lfingers 7.12502
lthumb -0.755961 68.421
rfemur -13.4601 5.88179 20.0181
rtibia 11.9068
rfoot -14.263 -14.8561
rtoes 0.626285
lfemur -12.1963 3.81294 -16.9086
ltibia 10.1859
lfoot -15.5657 -1.36766
ltoes -2.02034
47
root -16.8391 17.5676 -0.874933 -123.736 85.2113 -134.678
lowerback -14.6636 2.30275 2.16079
upperback -1.1634 2.75701 0.208519
thorax 7.07806 1.4358 -0.429693
lowerneck -8.07022 -4.02775 -1.73409
upperneck 13.8578 -5.36747 1.76417
head 5.60375 -2.53162 0.452476
rclavicle 1.67476e-014 1.09332e-014
rhumerus -49.5862 32.5453 -119.814
rradius 105.158
rwrist -15.2283
rhand -22.8594 -4.45168
rfingers 7.12502
rthumb 3.57889 -34.4014
lclavicle 1.67476e-014 1.09332e-014
lhumerus -41.7289 -40.2411 117.651
lradius 106.177
lwrist 17.732
lhand -27.3034 38.3201
lfingers 7.12502
lthumb -0.71312 68.2987
rfemur -13.2103 5.81455 20.0322
rtibia 11.7846
rfoot -14.3312 -14.8117
rtoes 0.977069
lfemur -12.0387 3.64629 -16.9252
ltibia 10.1678
lfoot -15.5235 -1.37538
ltoes -1.81167
48
root -16.8329 17.567 -0.853113 -123.87 85.267 -134.76
lowerback -14.6921 2.30412 2.12331
upperback -1.10463 2.76286 0.192496
thorax 7.15613 1.4375 -0.421742
lowerneck -8.15503 -3.99785 -1.69916
upperneck 13.8661 -5.33262 1.76921
head 5.61936 -2.51216 0.449087
rclavicle 1.93939e-014 1.31198e-014
rhumerus -49.7261 32.5104 -119.896
rradius 105.308
rwrist -15.5451
rhand -22.3744 -4.48387
rfingers 7.12502
rthumb 4.04728 -34.4252
lclavicle 1.93939e-014 1.31198e-014
lhumerus -41.7603 -40.1811 117.597
lradius 106.335
lwrist 17.755
lhand -27.1922 38.2731
lfingers 7.12502
lthumb -0.605685 68.252
rfemur -13.0951 5.80043 20.075
rtibia 11.7199
rfoot -14.3429 -14.7024
rtoes 1.42935
lfemur -11.9219 3.51509 -16.9124
ltibia 10.0954
lfoot -15.4463 -1.20262
ltoes -2.1145
49
root -16.828 17.5647 -0.833457 -123.153 85.2796 -134.039
lowerback -14.7469 2.32743 2.17913
upperback -1.06818 2.78083 0.208216
thorax 7.22816 1.4478 -0.429552
lowerneck -8.27047 -3.94236 -1.79094
upperneck 13.8894 -5.26465 1.90578
head 5.6514 -2.47329 0.508887
rclavicle -6.01199e-014 -1.37161e-014
rhumerus -49.7977 32.5408 -119.914
rradius 105.452
rwrist -16.1494
rhand -22.0009 -4.94455
rfingers 7.12502
rthumb 4.40792 -34.8787
lclavicle -6.01199e-014 -1.37161e-014
lhumerus -41.8403 -40.1362 117.568
lradius 106.503
lwrist 17.8032
lhand -27.3815 38.1948
lfingers 7.12502
lthumb -0.788553 68.1731
rfemur -13.064 5.84419 20.2015
rtibia 11.6792
rfoot -14.276 -14.6169
rtoes 1.63988
lfemur -11.8776 3.30237 -16.8245
ltibia 10.0578
lfoot -15.3645 -0.897436
ltoes -2.22444
50
root -16.8212 17.5631 -0.813073 -123.696 85.2914 -134.529
lowerback -14.7417 2.32243 2.16362
upperback -1.04594 2.77515 0.21968
thorax 7.24764 1.44429 -0.409486
lowerneck -8.3944 -3.89882 -1.91557
upperneck 13.9712 -5.20183 2.00008
head 5.7029 -2.44066 0.559917
rclavicle -1.65737e-014 -1.82882e-014
rhumerus -49.8531 32.5405 -119.932
rradius 105.562
rwrist -16.8413
rhand -21.4832 -5.56044
rfingers 7.12502
rthumb 4.90779 -35.4836
lclavicle -1.65737e-014 -1.82882e-014
lhumerus -42.015 -40.0849 117.601
lradius 106.66
lwrist 17.8508
lhand -27.6306 38.2527
lfingers 7.12502
lthumb -1.02909 68.23
rfemur -12.8971 5.82144 20.2666
rtibia 11.5346
rfoot -14.2345 -14.5751
rtoes 1.83749
lfemur -11.7491 3.14659 -16.8138
ltibia 9.9706
lfoot -15.2733 -0.738798
ltoes -2.16479
51
root -16.8118 17.5625 -0.790805 -124.408 85.2512 -135.198
lowerback -14.7244 2.29208 2.15108
upperback -1.05118 2.73731 0.22348
thorax 7.23053 1.42541 -0.407185
lowerneck -8.46264 -3.89513 -1.76011
upperneck 13.9592 -5.18829 1.7903
head 5.70068 -2.44147 0.468998
rclavicle 3.40729e-014 6.36111e-015
rhumerus -49.863 32.5291 -120.049
rradius 105.604
rwrist -17.2078
rhand -20.9756 -6.04549
rfingers 7.12502
rthumb 5.39786 -35.9567
lclavicle 3.40729e-014 6.36111e-015
lhumerus -42.2041 -40.0173 117.595
lradius 106.786
lwrist 17.854
lhand -27.7177 38.4356
lfingers 7.12502
lthumb -1.11326 68.4124
rfemur -12.6806 5.76335 20.3766
rtibia 11.3127
rfoot -14.2362 -14.5736
rtoes 2.29941
lfemur -11.6379 3.15594 -16.7596
ltibia 9.90208
lfoot -15.2283 -0.759332
ltoes -2.11792
